<svg width="64" height="64" viewBox="0 0 64 64" fill="none" xmlns="http://www.w3.org/2000/svg">
<rect x="2" y="2" width="60" height="60" rx="20" fill="#7834F5"/>
<path d="M11.3906 31.6875C11.3906 29.3542 11.7396 27.3958 12.4375 25.8125C12.9583 24.6458 13.6667 23.599 14.5625 22.6719C15.4688 21.7448 16.4583 21.0573 17.5312 20.6094C18.9583 20.0052 20.6042 19.7031 22.4688 19.7031C25.8438 19.7031 28.5417 20.75 30.5625 22.8438C32.5938 24.9375 33.6094 27.849 33.6094 31.5781C33.6094 35.276 32.6042 38.1719 30.5938 40.2656C28.5833 42.349 25.8958 43.3906 22.5312 43.3906C19.125 43.3906 16.4167 42.3542 14.4062 40.2812C12.3958 38.1979 11.3906 35.3333 11.3906 31.6875ZM16.1562 31.5312C16.1562 34.125 16.7552 36.0938 17.9531 37.4375C19.151 38.7708 20.6719 39.4375 22.5156 39.4375C24.3594 39.4375 25.8698 38.776 27.0469 37.4531C28.2344 36.1198 28.8281 34.125 28.8281 31.4688C28.8281 28.8438 28.25 26.8854 27.0938 25.5938C25.9479 24.3021 24.4219 23.6562 22.5156 23.6562C20.6094 23.6562 19.0729 24.3125 17.9062 25.625C16.7396 26.9271 16.1562 28.8958 16.1562 31.5312ZM37.3594 43V20.2812H41.9844V39.1406H53.4844V43H37.3594Z" fill="white"/>
</svg>
